HIERARCHY
ROOT Hips
{
	OFFSET -3.958830 18.904000 13.208200
	CHANNELS 6 Xposition Yposition Zposition Zrotation Yrotation Xrotation 
	JOINT LHipJoint
	{
		OFFSET 0.000000 0.000000 0.000000
		CHANNELS 3 Zrotation Yrotation Xrotation
		JOINT LeftUpLeg
		{
			OFFSET 1.800000 -1.400000 0.085000
			CHANNELS 3 Zrotation Yrotation Xrotation
			JOINT LeftLeg
			{
				OFFSET 2.215000 -6.000000 0.000000
				CHANNELS 3 Zrotation Yrotation Xrotation
				JOINT LeftFoot
				{
					OFFSET 2.500000 -6.900000 0.000000
					CHANNELS 3 Zrotation Yrotation Xrotation
					JOINT LeftToeBase
					{
						OFFSET 0.200000 -0.500000 1.950000
						CHANNELS 3 Zrotation Yrotation Xrotation
						End Site
						{
							OFFSET 0.000000 0.000000 0.000000
						}
					}
				}
			}
		}
	}
	JOINT RHipJoint
	{
		OFFSET 0.000000 0.000000 0.000000
		CHANNELS 3 Zrotation Yrotation Xrotation
		JOINT RightUpLeg
		{
			OFFSET -1.800000 -1.400000 0.085000
			CHANNELS 3 Zrotation Yrotation Xrotation
			JOINT RightLeg
			{
				OFFSET -2.215000 -6.000000 0.000000
				CHANNELS 3 Zrotation Yrotation Xrotation
				JOINT RightFoot
				{
					OFFSET -2.500000 -6.900000 0.000000
					CHANNELS 3 Zrotation Yrotation Xrotation
					JOINT RightToeBase
					{
						OFFSET -0.200000 -0.500000 1.950000
						CHANNELS 3 Zrotation Yrotation Xrotation
						End Site
						{
							OFFSET 0.000000 0.000000 0.000000
						}
					}
				}
			}
		}
	}
	JOINT LowerBack
	{
		OFFSET 0.000000 0.000000 0.000000
		CHANNELS 3 Zrotation Yrotation Xrotation
		JOINT Spine
		{
			OFFSET -0.087000 1.940000 -0.288900
			CHANNELS 3 Zrotation Yrotation Xrotation
			JOINT Spine1
			{
				OFFSET 0.000000 1.950000 0.060000
				CHANNELS 3 Zrotation Yrotation Xrotation
				JOINT Neck
				{
					OFFSET 0.000000 0.000000 0.000000
					CHANNELS 3 Zrotation Yrotation Xrotation
					JOINT Neck1
					{
						OFFSET 0.000000 1.600000 0.340000
						CHANNELS 3 Zrotation Yrotation Xrotation
						JOINT Head
						{
							OFFSET 0.000000 1.667000 -0.240000
							CHANNELS 3 Zrotation Yrotation Xrotation
							End Site
							{
								OFFSET 0.000000 0.000000 0.000000
							}
						}
					}
				}
				JOINT LeftShoulder
				{
					OFFSET 0.000000 0.000000 0.000000
					CHANNELS 3 Zrotation Yrotation Xrotation
					JOINT LeftArm
					{
						OFFSET 2.700000 1.550000 -0.730000
						CHANNELS 3 Zrotation Yrotation Xrotation
						JOINT LeftForeArm
						{
							OFFSET 5.450000 0.000000 0.000000
							CHANNELS 3 Zrotation Yrotation Xrotation
							JOINT LeftHand
							{
								OFFSET 3.450000 0.000000 0.000000
								CHANNELS 3 Zrotation Yrotation Xrotation
								JOINT LeftHandIndex1
								{
									OFFSET 0.750000 0.000000 0.000000
									CHANNELS 3 Zrotation Yrotation Xrotation
									End Site
									{
										OFFSET 0.000000 0.000000 0.000000
									}
								}
							}
						}
					}
				}
				JOINT RightShoulder
				{
					OFFSET 0.000000 0.000000 0.000000
					CHANNELS 3 Zrotation Yrotation Xrotation
					JOINT RightArm
					{
						OFFSET -2.700000 1.550000 -0.730000
						CHANNELS 3 Zrotation Yrotation Xrotation
						JOINT RightForeArm
						{
							OFFSET -5.450000 0.000000 0.000000
							CHANNELS 3 Zrotation Yrotation Xrotation
							JOINT RightHand
							{
								OFFSET -3.450000 0.000000 0.000000
								CHANNELS 3 Zrotation Yrotation Xrotation
								JOINT RightHandIndex1
								{
									OFFSET -0.750000 0.000000 0.000000
									CHANNELS 3 Zrotation Yrotation Xrotation
									End Site
									{
										OFFSET 0.000000 0.000000 0.000000
									}
								}
							}
						}
					}
				}
			}
		}
	}
}
MOTION
Frames: 10
Frame Time: 0.016667
-19.860400 16.983840 2.186870 -8.896559 31.091304 -2.441615 -15.161676 11.816689 4.632816 19.475001 0.323691 -31.117254 -4.040777 2.630216 -6.920895 -0.592498 3.046944 3.064480 1.590170 1.562050 1.351750 18.430629 -9.796738 3.221413 5.968082 -4.371667 3.483049 10.102895 -3.752123 -1.192453 -0.968375 -4.134663 2.476968 1.000310 -0.656370 -0.088840 -4.432116 -1.712793 -8.795355 29.967647 3.736815 14.423112 -11.846942 9.272754 -27.203963 -1.995163 -8.098924 -3.331368 -13.853761 16.431287 33.245979 8.258860 10.404960 -15.821510 5.009372 16.968384 -5.891465 -18.476854 -27.286331 7.178815 20.399153 16.250520 2.761040 -3.543388 3.231944 0.558030 -0.544420 0.408060 0.209810 -4.031222 -4.249747 -1.441359 8.948440 27.775017 6.015238 -2.786648 -3.286671 -1.761843 3.142374 -1.680849 0.051500 -0.156540 -0.900640 -0.220120 
-19.845950 16.957280 2.216080 -7.399650 29.016739 1.984485 -15.039077 11.466399 4.807371 18.767392 -0.264678 -32.984073 -3.883514 2.348984 -7.788170 -0.642782 3.031580 3.143637 1.539810 1.544460 1.196380 18.515482 -10.218309 3.157215 5.050726 -2.901533 -0.556025 9.305340 -3.438015 0.224666 -0.738821 -3.965940 2.559312 1.069000 -0.381050 -0.085250 -4.731725 -0.421669 -8.762641 28.228801 4.804658 11.853299 -12.237718 8.913458 -28.879415 -4.109269 -6.523527 -2.637143 -8.965353 19.509659 27.329298 10.990370 11.720630 -9.627820 12.096511 19.045320 -5.044736 -21.529359 -24.374995 6.226641 17.035079 11.829421 1.801670 -3.813537 3.307952 0.359280 -0.357510 0.198640 0.277260 -7.574243 -5.508780 -2.077665 17.491279 31.094573 8.564491 -8.440377 -7.992625 -1.604124 3.223234 -1.883782 -0.006740 -0.085720 -0.821360 -0.138710 
-19.838910 16.947360 2.276630 -7.146072 26.479491 2.863392 -15.041579 11.537438 4.920777 19.849068 0.106282 -31.823440 -3.841992 2.432350 -8.423146 -0.561401 3.313479 2.999536 1.352260 1.307570 1.026320 18.472195 -10.264369 3.158279 4.957860 -2.795861 -0.999066 8.721711 -3.579189 0.872165 -0.669144 -3.941953 2.538642 0.910980 -0.313790 0.041930 -4.624801 -0.434606 -8.878349 25.931116 6.116887 11.127972 -10.766155 9.847085 -30.092848 -3.172252 -5.642198 -2.934109 -7.106972 19.984640 28.560074 10.833490 12.753320 -7.049960 11.987602 20.040189 -5.635780 -18.223416 -23.027160 4.796783 14.603019 8.049622 0.782985 -3.914866 3.483313 0.304380 -0.283040 0.141740 0.220070 -9.356003 -6.000678 -1.691634 20.390657 31.946178 9.812078 -8.658335 -7.186509 -1.507026 3.172029 -1.903592 0.029300 -0.192840 -0.636420 -0.138860 
-19.817130 16.932540 2.208140 -7.901603 32.456650 -0.585349 -15.135533 11.746783 4.649107 18.179085 -0.142396 -32.833069 -4.195841 2.548649 -6.114501 -0.584919 2.924358 3.147963 1.438370 1.342550 1.219020 18.424721 -10.013890 3.227919 5.235707 -3.801646 2.119786 10.518481 -3.917130 -0.533851 -0.853562 -4.143679 2.505776 0.863150 -0.532910 -0.023740 -4.565987 -1.221210 -8.821399 27.314978 4.106171 12.283063 -11.690834 9.058949 -27.034874 -1.120461 -6.664800 -3.173637 -10.270489 15.478268 31.645696 8.094550 10.106750 -12.453510 2.598364 16.111205 -6.420117 -5.830378 -20.297192 2.644869 9.088401 1.771713 -0.501355 -3.241068 3.501627 0.481350 -0.449640 0.288660 0.200550 -3.634276 -4.359603 -0.509453 8.961867 26.936327 5.356789 -7.743699 -4.754114 -1.486105 3.160941 -1.820242 0.042930 -0.219920 -0.790870 -0.206570 
-19.798770 16.935040 2.157950 -8.521923 34.783529 -3.065271 -15.162203 11.900983 4.424513 17.144686 -0.145927 -32.521517 -3.841829 2.605957 -4.895181 -0.597545 2.710977 3.212228 1.462860 1.359980 1.268380 18.405560 -9.952181 3.292307 5.233259 -4.332037 4.143147 11.267021 -4.115560 -1.047188 -0.953671 -4.299347 2.452431 0.841010 -0.627740 -0.047280 -4.573074 -1.500233 -8.734290 28.841779 2.840107 13.408483 -12.411527 8.636429 -24.430926 -0.515633 -7.358134 -3.756602 -12.266983 14.072227 32.903244 7.349890 8.959450 -15.224970 -1.519805 13.456763 -5.936936 -0.578048 -16.508112 1.638993 7.161470 -3.275419 -0.324765 -2.954066 3.615612 0.552520 -0.533680 0.355460 0.185670 -0.621301 -1.912562 0.552142 2.693574 24.569805 3.707819 -5.125345 -4.685350 -1.469083 3.154734 -1.767415 0.060420 -0.233750 -0.830980 -0.221940 
-19.786010 16.929450 2.137140 -8.623895 35.362236 -3.928739 -15.145158 11.842792 4.367795 16.934951 -0.134596 -31.942920 -4.357177 2.582169 -5.167053 -0.570236 2.737431 3.164454 1.466750 1.360210 1.238060 18.436113 -9.960900 3.275400 4.756904 -4.291207 4.811687 11.881710 -4.325217 -0.690614 -1.004506 -4.418194 2.385757 0.821830 -0.661590 0.013920 -4.658592 -1.386874 -8.671594 29.782721 2.354717 13.581679 -13.258172 8.291300 -22.818766 -0.385699 -7.799858 -3.769338 -13.281232 13.952065 32.883726 7.242200 8.572000 -16.177190 -3.691410 12.132516 -5.727432 2.562325 -14.440814 1.319987 6.583844 -5.496170 -0.190709 -2.883175 3.787649 0.546310 -0.550490 0.384120 0.181880 1.181099 -0.790213 0.797033 -1.285553 23.843133 2.810160 -4.784052 -3.965497 -1.459706 3.102882 -1.811734 0.120780 -0.287590 -0.796740 -0.213090 
-19.782040 16.917500 2.128550 -7.466035 35.445247 -4.106001 -15.135125 11.877313 4.306194 15.719884 -0.386034 -30.633075 -4.602213 2.339558 -6.447488 -0.527731 2.698633 3.100503 1.387230 1.266890 1.134600 18.426553 -9.998075 3.283608 3.605722 -4.120549 5.708256 11.443883 -4.433683 -0.802584 -1.034901 -4.512526 2.291465 0.724810 -0.703040 0.117620 -4.667809 -1.389013 -8.676789 28.677017 2.146477 14.055886 -12.913365 8.028342 -20.748302 -0.306867 -8.021755 -5.042846 -14.163829 14.334287 33.921673 7.731280 8.715600 -16.741920 -3.723198 10.145271 -4.243076 2.494781 -10.211076 1.246120 7.628707 -8.313929 -0.034265 -2.933218 3.982250 0.542620 -0.579000 0.411530 0.130220 1.499202 1.165786 1.523714 -2.169311 22.979410 2.338969 -5.968622 -2.666641 -1.237094 3.105601 -1.808635 0.205510 -0.403210 -0.674450 -0.201280 
-19.750690 16.933500 2.125630 -8.115131 36.373765 -4.661046 -15.117015 11.801196 4.257579 15.501444 -0.437822 -30.467829 -4.498030 2.289515 -6.787835 -0.529016 2.627995 3.189221 1.433780 1.321480 1.213690 18.465494 -10.011171 3.274156 3.976694 -4.259206 5.746707 11.987125 -4.507018 -0.565540 -1.063763 -4.501093 2.339803 0.759720 -0.726870 0.035570 -4.789536 -1.238808 -8.628057 30.091362 1.724555 13.446295 -14.166448 7.837869 -19.241814 -0.117620 -8.050643 -5.392667 -14.449225 13.322190 33.902425 7.280300 8.101990 -18.359770 -3.828624 9.556062 -4.134053 2.331610 -10.658743 1.140751 8.623327 -8.900867 0.018849 -2.865418 3.843079 0.589310 -0.613230 0.436220 0.153510 1.208402 1.466398 2.171199 0.436435 21.763206 2.268589 -10.076603 -0.955962 -1.171529 3.116776 -1.814295 0.160620 -0.329620 -0.767410 -0.215230 
-19.726660 16.962360 2.113200 -8.452375 37.929647 -5.718927 -15.121135 11.900046 4.079708 14.626976 -0.559761 -30.006122 -3.921650 2.295567 -5.950354 -0.563747 2.415760 3.290115 1.451920 1.359450 1.256530 18.464640 -10.043511 3.310563 4.646236 -4.665887 6.354138 11.697840 -4.542567 -0.525877 -1.105293 -4.459542 2.383373 0.776670 -0.780120 -0.049840 -4.871799 -1.274497 -8.535660 31.191384 0.524606 13.537351 -15.639719 7.137732 -18.022381 0.008825 -8.272231 -5.978160 -15.373284 13.240482 34.995701 7.901630 7.953170 -20.953630 -3.838557 8.785854 -3.701578 2.291441 -10.083557 0.858742 9.064001 -7.917988 -0.019064 -2.803081 3.652539 0.664070 -0.682260 0.482680 0.150490 1.092218 1.903070 2.744284 2.742536 20.402683 2.240561 -12.048743 2.557868 -1.183164 3.077930 -1.766014 0.122310 -0.262420 -0.819810 -0.234000 
-19.706620 16.990950 2.096670 -9.303278 39.056796 -7.391807 -15.127360 11.946189 3.929543 13.811532 -0.638043 -28.365269 -3.052230 2.131594 -6.876997 -0.594911 2.346220 3.332554 1.475400 1.379800 1.302300 18.476728 -10.025579 3.358048 6.596943 -5.394020 7.093105 10.400887 -4.488572 -0.642274 -1.153042 -4.399542 2.404220 0.787900 -0.828030 -0.071280 -4.940370 -1.289034 -8.457044 32.874760 -0.583896 13.801658 -17.100025 6.482585 -16.822844 0.294822 -8.452553 -6.019216 -16.103392 13.341021 36.229022 7.489160 8.126620 -23.232950 -4.744563 8.173295 -3.741496 3.255156 -10.381606 0.741234 10.070294 -8.298010 -0.043879 -2.760326 3.574945 0.731050 -0.723800 0.529920 0.141270 1.350768 2.126278 2.861232 3.797262 20.175213 2.541574 -10.191655 5.644654 -1.104825 3.005502 -1.707879 0.105790 -0.230850 -0.839680 -0.262830 
